<?xml version="1.0" encoding="UTF-8"?><svg xmlns="http://www.w3.org/2000/svg" xmlns:latexdraw="http://latexdraw.sourceforge.net/namespaces/latexdraw" version="1.1" baseProfile="full">
    <g>
        <g latexdraw:type="joinedLines" id="id16419591">
            <polyline points="560.0,160.0 640.0,160.0 " stroke-width="2.0" stroke="black" latexdraw:rotationAngle="0.0"/>
        </g>
        <g latexdraw:type="joinedLines" id="id1106925830">
            <polyline points="560.0,200.0 640.0,200.0 " stroke-width="2.0" stroke="#0055ff" latexdraw:rotationAngle="0.0"/>
        </g>
        <g latexdraw:type="joinedLines" id="id672192677">
            <polyline points="190.0,150.0 350.0,270.0 540.0,370.0 760.0,440.0 " stroke-width="2.0" stroke="black" fill="none" latexdraw:rotationAngle="0.0"/>
        </g>
        <g latexdraw:type="dot" id="id1263956108" latexdraw:size="15.0" latexdraw:dotShape="*" latexdraw:position="760.0 440.0">
            <path d="M 766.9230769230769 440.0 C 766.9230769230769 443.8235098065209 763.8235098065209 446.92307692307696 760.0 446.92307692307696 C 756.1764901934791 446.92307692307696 753.0769230769231 443.8235098065209 753.0769230769231 440.0 C 753.0769230769231 436.17649019347914 756.1764901934791 433.0769230769231 760.0 433.0769230769231 C 763.8235098065209 433.0769230769231 766.9230769230769 436.17649019347914 766.9230769230769 440.0 z " fill="black" stroke-linecap="square" stroke-linejoin="butt" stroke-width="0.9375" stroke-miterlimit="10.0" stroke-dashoffset="0.0" stroke="black"/>
        </g>
        <g latexdraw:type="dot" id="id1267118084" latexdraw:size="15.0" latexdraw:dotShape="*" latexdraw:position="540.0 370.0">
            <path d="M 546.9230769230769 370.0 C 546.9230769230769 373.8235098065209 543.8235098065209 376.92307692307696 540.0 376.92307692307696 C 536.1764901934791 376.92307692307696 533.0769230769231 373.8235098065209 533.0769230769231 370.0 C 533.0769230769231 366.17649019347914 536.1764901934791 363.0769230769231 540.0 363.0769230769231 C 543.8235098065209 363.0769230769231 546.9230769230769 366.17649019347914 546.9230769230769 370.0 z " fill="black" stroke-linecap="square" stroke-linejoin="butt" stroke-width="0.9375" stroke-miterlimit="10.0" stroke-dashoffset="0.0" stroke="black"/>
        </g>
        <g latexdraw:type="dot" id="id2014236762" latexdraw:size="15.0" latexdraw:dotShape="*" latexdraw:position="190.0 150.0">
            <path d="M 196.9230769230769 150.0 C 196.9230769230769 153.82350980652086 193.82350980652086 156.9230769230769 190.0 156.9230769230769 C 186.1764901934791 156.9230769230769 183.07692307692307 153.82350980652086 183.07692307692307 150.0 C 183.07692307692307 146.1764901934791 186.1764901934791 143.07692307692307 190.0 143.07692307692307 C 193.82350980652086 143.07692307692307 196.9230769230769 146.1764901934791 196.9230769230769 150.0 z " fill="black" stroke-linecap="square" stroke-linejoin="butt" stroke-width="0.9375" stroke-miterlimit="10.0" stroke-dashoffset="0.0" stroke="black"/>
        </g>
        <g latexdraw:type="joinedLines" id="id359851389">
            <polyline points="760.0,310.0 540.0,310.0 350.0,270.0 " stroke-width="2.0" stroke="#0055ff" fill="none" latexdraw:rotationAngle="0.0"/>
        </g>
        <g latexdraw:type="joinedLines" id="id1004723573">
            <polyline points="540.0,310.0 350.0,310.0 " stroke-width="2.0" stroke="#0054ff" stroke-dasharray="8.819444444444445, 5.291666666666667" latexdraw:rotationAngle="0.0"/>
        </g>
        <g latexdraw:type="joinedLines" id="id33508907">
            <polyline points="540.0,370.0 350.0,310.0 " stroke-width="2.0" stroke="#010101" stroke-dasharray="8.819444444444445, 5.291666666666667" latexdraw:rotationAngle="0.0"/>
        </g>
        <g latexdraw:type="dot" id="id464529162" latexdraw:size="15.0" latexdraw:dotShape="o" latexdraw:position="760.0 310.0">
            <path d="M 767.0833333333333 310.0 C 767.0833333333333 313.91201697796816 763.912016977968 317.08333333333337 760.0 317.08333333333337 C 756.0879830220318 317.08333333333337 752.9166666666666 313.91201697796816 752.9166666666666 310.0 C 752.9166666666666 306.0879830220319 756.0879830220318 302.9166666666667 760.0 302.9166666666667 C 763.912016977968 302.9166666666667 767.0833333333333 306.0879830220319 767.0833333333333 310.0 z " fill="white" stroke-linecap="square" stroke-linejoin="butt" stroke-width="0.9375" stroke-miterlimit="10.0" stroke-dashoffset="0.0" stroke="black"/>
        </g>
        <g latexdraw:type="dot" id="id1125329920" latexdraw:size="15.0" latexdraw:dotShape="o" latexdraw:position="540.0 310.0">
            <path d="M 547.0833333333333 310.0 C 547.0833333333333 313.91201697796816 543.912016977968 317.08333333333337 540.0 317.08333333333337 C 536.0879830220318 317.08333333333337 532.9166666666666 313.91201697796816 532.9166666666666 310.0 C 532.9166666666666 306.0879830220319 536.0879830220318 302.9166666666667 540.0 302.9166666666667 C 543.912016977968 302.9166666666667 547.0833333333333 306.0879830220319 547.0833333333333 310.0 z " fill="white" stroke-linecap="square" stroke-linejoin="butt" stroke-width="0.9375" stroke-miterlimit="10.0" stroke-dashoffset="0.0" stroke="black"/>
        </g>
        <g latexdraw:type="dot" id="id1307518501" latexdraw:size="15.0" latexdraw:dotShape="o" latexdraw:position="350.0 310.0">
            <path d="M 357.08333333333337 310.0 C 357.08333333333337 313.91201697796816 353.91201697796816 317.08333333333337 350.0 317.08333333333337 C 346.0879830220319 317.08333333333337 342.9166666666667 313.91201697796816 342.9166666666667 310.0 C 342.9166666666667 306.0879830220319 346.0879830220319 302.9166666666667 350.0 302.9166666666667 C 353.91201697796816 302.9166666666667 357.08333333333337 306.0879830220319 357.08333333333337 310.0 z " fill="white" stroke-linecap="square" stroke-linejoin="butt" stroke-width="0.9375" stroke-miterlimit="10.0" stroke-dashoffset="0.0" stroke="black"/>
        </g>
        <g latexdraw:type="dot" id="id439663677" latexdraw:size="15.0" latexdraw:dotShape="*" latexdraw:position="350.0 270.0">
            <path d="M 356.92307692307696 270.0 C 356.92307692307696 273.8235098065209 353.8235098065209 276.92307692307696 350.0 276.92307692307696 C 346.17649019347914 276.92307692307696 343.0769230769231 273.8235098065209 343.0769230769231 270.0 C 343.0769230769231 266.17649019347914 346.17649019347914 263.0769230769231 350.0 263.0769230769231 C 353.8235098065209 263.0769230769231 356.92307692307696 266.17649019347914 356.92307692307696 270.0 z " fill="black" stroke-linecap="square" stroke-linejoin="butt" stroke-width="0.9375" stroke-miterlimit="10.0" stroke-dashoffset="0.0" stroke="black"/>
        </g>
        <g latexdraw:type="dot" id="id386363633" latexdraw:size="15.0" latexdraw:dotShape="*" latexdraw:position="600.0 160.0">
            <path d="M 606.9230769230769 160.0 C 606.9230769230769 163.82350980652086 603.8235098065209 166.9230769230769 600.0 166.9230769230769 C 596.1764901934791 166.9230769230769 593.0769230769231 163.82350980652086 593.0769230769231 160.0 C 593.0769230769231 156.1764901934791 596.1764901934791 153.07692307692307 600.0 153.07692307692307 C 603.8235098065209 153.07692307692307 606.9230769230769 156.1764901934791 606.9230769230769 160.0 z " fill="black" stroke-linecap="square" stroke-linejoin="butt" stroke-width="0.9375" stroke-miterlimit="10.0" stroke-dashoffset="0.0" stroke="black"/>
        </g>
        <g latexdraw:type="dot" id="id117922460" latexdraw:size="15.0" latexdraw:dotShape="o" latexdraw:position="600.0 200.0">
            <path d="M 607.0833333333333 200.0 C 607.0833333333333 203.9120169779681 603.912016977968 207.08333333333331 600.0 207.08333333333331 C 596.0879830220318 207.08333333333331 592.9166666666666 203.9120169779681 592.9166666666666 200.0 C 592.9166666666666 196.08798302203186 596.0879830220318 192.91666666666666 600.0 192.91666666666666 C 603.912016977968 192.91666666666666 607.0833333333333 196.08798302203186 607.0833333333333 200.0 z " fill="white" stroke-linecap="square" stroke-linejoin="butt" stroke-width="0.9375" stroke-miterlimit="10.0" stroke-dashoffset="0.0" stroke="black"/>
        </g>
        <g latexdraw:type="text" id="id1917110583" fill="black" latexdraw:position="bl">
            <text x="270.0" y="460.0">\huge \sffamily x</text>
        </g>
        <g latexdraw:type="text" id="id647553660" fill="black" latexdraw:position="bl">
            <text x="140.0" y="340.0">\huge \sffamily z</text>
        </g>
        <g latexdraw:type="text" id="id1181804604" fill="black" latexdraw:position="bl">
            <text x="650.0" y="170.0">\huge \sffamily Topography</text>
        </g>
        <g latexdraw:type="text" id="id1863912039" fill="black" latexdraw:position="bl">
            <text x="650.0" y="210.0">\huge \sffamily Free surface</text>
        </g>
        <g latexdraw:type="joinedLines" id="id941116878">
            <polyline points="180.0,430.0 280.0,430.0 " stroke-width="2.0" stroke="black" latexdraw:rotationAngle="0.0" marker-end="url(#arrow1-941116878)"/>
        </g>
        <g latexdraw:type="joinedLines" id="id1091803336">
            <polyline points="180.0,430.0 180.0,330.0 " stroke-width="2.0" stroke="black" latexdraw:rotationAngle="0.0" marker-end="url(#arrow1-1091803336)"/>
        </g>
    </g>
    <defs>
        <marker overflow="visible" orient="auto" id="arrow1-941116878">
            <path d="M 0.0 0.0 L -12.645833333333334 3.1614583333333335 L -12.645833333333334 0.0 L -12.645833333333334 -3.1614583333333335 z " latexdraw:arrSizeNum="5.0" fill="black"/>
        </marker>
        <marker overflow="visible" orient="auto" id="arrow1-1091803336">
            <path d="M 0.0 0.0 L -12.645833333333334 3.1614583333333335 L -12.645833333333334 0.0 L -12.645833333333334 -3.1614583333333335 z " latexdraw:arrSizeNum="5.0" fill="black"/>
        </marker>
    </defs>
    <metadata>
        <latexdraw:metadata>
            <latexdraw:latexIncludes/>
            <latexdraw:displayXScale>true</latexdraw:displayXScale>
            <latexdraw:displayYScale>true</latexdraw:displayYScale>
            <latexdraw:unit>CM</latexdraw:unit>
            <latexdraw:zoom>1.0</latexdraw:zoom>
            <latexdraw:magneticGridStyle>CUSTOMISED</latexdraw:magneticGridStyle>
            <latexdraw:gridGap>10</latexdraw:gridGap>
            <latexdraw:magneticGrid>true</latexdraw:magneticGrid>
            <latexdraw:version>3.3.8</latexdraw:version>
            <latexdraw:size>
                <latexdraw:width>1608</latexdraw:width>
                <latexdraw:height>1023</latexdraw:height>
            </latexdraw:size>
            <latexdraw:position>
                <latexdraw:x>72.0</latexdraw:x>
                <latexdraw:y>27.0</latexdraw:y>
            </latexdraw:position>
        </latexdraw:metadata>
    </metadata>
</svg>
